{"title":"Nicki Minaj - Freedom {M4A+MP4} (1080p) x264 [VX] [P2PDL]","uid":7853637,"size":56382901,"categoryP":"video","categoryS":"music_videos","magnet":"?xt=urn:btih:5b673313439e3c6c8f584e8335f75af837c96ce7&amp;dn=Nicki+Minaj+-+Freedom+%7BM4A%2BMP4%7D+%281080p%29+x264+%5BVX%5D+%5BP2PDL%5D&amp;tr=udp%3A%2F%2Ftracker.openbittorrent.com%3A80&amp;tr=udp%3A%2F%2Fopen.demonii.com%3A1337&amp;tr=udp%3A%2F%2Ftracker.coppersurfer.tk%3A6969&amp;tr=udp%3A%2F%2Fexodus.desync.com%3A6969","seeders":1,"leechers":3,"uploader":"Vitamin_X","files":-1,"time":1353679711,"description":" &lt;a href=&quot;http://www.shotpix.com/images/63052886452117157120.jpg&quot; rel=&quot;nofollow&quot; target=&quot;_NEW&quot;&gt;http://www.shotpix.com/images/63052886452117157120.jpg&lt;/a&gt;\n\n\nNicki Minaj - Freedom {M4A+MP4} (1080p) x264 [VX] [P2PDL]\n\n                         1080p Full HD MP4 Video\n                                     +\n                          128 Kbps/VBR M4A Audio\n\nGeneral\nFormat                         : MPEG-4\nFormat profile                 : Base Media / Version 2\nCodec ID                       : mp42\nFile size                      : 48.5 MiB\nDuration                       : 4mn 59s\nOverall bit rate mode          : Variable\nOverall bit rate               : 1 357 Kbps\n\nVideo\nID                             : 1\nFormat                         : AVC\nFormat/Info                    : Advanced Video Codec\nFormat profile                 : &lt;a class=&quot;__cf_email__&quot; href=&quot;/cdn-cgi/l/email-protection&quot; data-cfemail=&quot;81c9e8e6e9c1cdb4afb1&quot;&gt;[email&amp;#160;protected]&lt;/a&gt;&lt;script cf-hash='f9e31' type=&quot;text/javascript&quot;&gt;\n/* &lt;![CDATA[ */!function(){try{var t=&quot;currentScript&quot;in document?document.currentScript:function(){for(var t=document.getElementsByTagName(&quot;script&quot;),e=t.length;e--;)if(t[e].getAttribute(&quot;cf-hash&quot;))return t[e]}();if(t&amp;&amp;t.previousSibling){var e,r,n,i,c=t.previousSibling,a=c.getAttribute(&quot;data-cfemail&quot;);if(a){for(e=&quot;&quot;,r=parseInt(a.substr(0,2),16),n=2;a.length-n;n+=2)i=parseInt(a.substr(n,2),16)^r,e+=String.fromCharCode(i);e=document.createTextNode(e),c.parentNode.replaceChild(e,c)}}}catch(u){}}();/* ]]&gt; */&lt;/script&gt;\nWidth                          : 1 920 pixels\nHeight                         : 1 080 pixels\nDisplay aspect ratio           : 16:9\nFrame rate mode                : Variable\nFrame rate                     : 23.976 fps\nColor space                    : YUV\nChroma subsampling             : 4:2:0\nBit depth                      : 8 bits\nScan type                      : Progressive\nStream size                    : 43.9 MiB (91%)\nWriting library                : x264 core 128\n\nAudio\nID                             : 2\nFormat                         : AAC\nFormat/Info                    : Advanced Audio Codec\nFormat profile                 : LC\nCodec ID                       : 40\nDuration                       : 4mn 59s\nBit rate mode                  : Variable\nBit rate                       : 123 Kbps\nMaximum bit rate               : 148 Kbps\nChannel(s)                     : 2 channels\nChannel positions              : Front: L R\nSampling rate                  : 48.0 KHz\nStream size                    : 4.41 MiB (9%)\n\nSubtitles                      : No\n\nScreens:\n &lt;a href=&quot;\nhttp://www.shotpix.com/images/40159648765725717939.jpg&quot; rel=&quot;nofollow&quot; target=&quot;_NEW&quot;&gt;\nhttp://www.shotpix.com/images/40159648765725717939.jpg&lt;/a&gt; &lt;a href=&quot;\nhttp://www.shotpix.com/images/75729504750852653116.jpg&quot; rel=&quot;nofollow&quot; target=&quot;_NEW&quot;&gt;\nhttp://www.shotpix.com/images/75729504750852653116.jpg&lt;/a&gt;\n\nThumbs: &lt;a href=&quot;\nhttp://www.shotpix.com/images/65271381894738660184.jpg&quot; rel=&quot;nofollow&quot; target=&quot;_NEW&quot;&gt;\nhttp://www.shotpix.com/images/65271381894738660184.jpg&lt;/a&gt;\n\n------------------------------------------------------------------------\n\nNotes:\n\n* Recommended to use latest version VLC Media Player.\n* Install shark007 codecs in case of any kind of problem in playback (For non-VLC Media Player users).\n* Alternatively, install Core AVC codecs, the fastest decoder that there is coupled with Community Center Codec Pack and play on Windows Media Player Classic.\n\nGreets to: VYTO, a2zRG, staff members at ExtraTorrent, TPB,KAT, 1337x, PublicHD, Ahashare,\nSilverTorrent, TorrentMafia, Digtorrent, BTScene, P2PDL, and all others\n\nEncoder Notes: Looking For Early Access To Anything You Can Provide DVDScr, R5, DVDRips, BluRay, Direct Audio, Early Music\nReleases, Seedboxes, Links, Dedicated Servers anything u can provide, Advance / Promo CDs/DVDs. If You Got anything to\noffer contact me at &quot;&lt;a class=&quot;__cf_email__&quot; href=&quot;/cdn-cgi/l/email-protection&quot; data-cfemail=&quot;46363421062e33352e6825292b&quot;&gt;[email&amp;#160;protected]&lt;/a&gt;&lt;script cf-hash='f9e31' type=&quot;text/javascript&quot;&gt;\n/* &lt;![CDATA[ */!function(){try{var t=&quot;currentScript&quot;in document?document.currentScript:function(){for(var t=document.getElementsByTagName(&quot;script&quot;),e=t.length;e--;)if(t[e].getAttribute(&quot;cf-hash&quot;))return t[e]}();if(t&amp;&amp;t.previousSibling){var e,r,n,i,c=t.previousSibling,a=c.getAttribute(&quot;data-cfemail&quot;);if(a){for(e=&quot;&quot;,r=parseInt(a.substr(0,2),16),n=2;a.length-n;n+=2)i=parseInt(a.substr(n,2),16)^r,e+=String.fromCharCode(i);e=document.createTextNode(e),c.parentNode.replaceChild(e,c)}}}catch(u){}}();/* ]]&gt; */&lt;/script&gt;&quot;\n\n\nFacebook Fan Page: www . facebook . com / p2pdl\n\n                                  Enjoy!","torrent":{"xt":"urn:btih:5b673313439e3c6c8f584e8335f75af837c96ce7","amp;dn":"Nicki+Minaj+-+Freedom+%7BM4A%2BMP4%7D+%281080p%29+x264+%5BVX%5D+%5BP2PDL%5D","amp;tr":["udp%3A%2F%2Ftracker.openbittorrent.com%3A80","udp%3A%2F%2Fopen.demonii.com%3A1337","udp%3A%2F%2Ftracker.coppersurfer.tk%3A6969","udp%3A%2F%2Fexodus.desync.com%3A6969"],"infoHash":"5b673313439e3c6c8f584e8335f75af837c96ce7","infoHashBuffer":{"type":"Buffer","data":[91,103,51,19,67,158,60,108,143,88,78,131,53,247,90,248,55,201,108,231]},"announce":[],"urlList":[]}}